# xmcd CD database file generated by Grip 3.2.0
# 
# Track frame offsets:
#       150
#       21678
#       44150
#       69263
#       88498
#       108200
# 
# Disc length: 1899 seconds
# 
# Revision: 1
# Processed by: cddbd v1.5.2PL0 Copyright (c) Steve Scherf et al.
# Submitted via: Grip 3.2.0
# 
DISCID=55076906
DTITLE=Terry Callier - Speak Your Peace (Promo)
DYEAR=2002
DGENRE=Jazz
TTITLE0=Monuments on mars
TTITLE1=Running around
TTITLE2=Darker than a shadow
TTITLE3=Brother to brother
TTITLE4=Speak your peace
TTITLE5=Imagine a nation
EXTD=YEAR: 2002
EXTT0=
EXTT1=
EXTT2=
EXTT3=
EXTT4=
EXTT5=
PLAYORDER=
